REM DIRINDEX 1\2,1\3,1\4,1\5
REM DIRNAME folder01,folder02,folder03,folder04,folder05
TITLE ""
FILE "1Q_j_2311-2324.mp3" MP3
  TRACK 01 AUDIO
    TITLE "3:cjc004_0632"
    INDEX 01 00:00:00
  TRACK 02 AUDIO
    TITLE "0:"
    INDEX 01 00:01:01
  TRACK 03 AUDIO
    TITLE "4:cjc004_0633"
    INDEX 01 00:01:30
  TRACK 04 AUDIO
    TITLE "0:"
    INDEX 01 00:02:38
  TRACK 05 AUDIO
    TITLE "5:cjc004_0634"
    INDEX 01 00:02:63
  TRACK 06 AUDIO
    TITLE "0:"
    INDEX 01 00:07:49
  TRACK 07 AUDIO
    TITLE "3:cjc004_0635"
    INDEX 01 00:08:28
  TRACK 08 AUDIO
    TITLE "0:"
    INDEX 01 00:09:53
  TRACK 09 AUDIO
    TITLE "4:cjc004_0636"
    INDEX 01 00:10:08
  TRACK 10 AUDIO
    TITLE "0:"
    INDEX 01 00:11:70
  TRACK 11 AUDIO
    TITLE "5:cjc004_0637"
    INDEX 01 00:12:18
  TRACK 12 AUDIO
    TITLE "0:"
    INDEX 01 00:19:46
  TRACK 13 AUDIO
    TITLE "3:cjc004_0638"
    INDEX 01 00:20:30
  TRACK 14 AUDIO
    TITLE "0:"
    INDEX 01 00:21:58
  TRACK 15 AUDIO
    TITLE "4:cjc004_0639"
    INDEX 01 00:22:15
  TRACK 16 AUDIO
    TITLE "0:"
    INDEX 01 00:23:55
  TRACK 17 AUDIO
    TITLE "5:cjc004_0640"
    INDEX 01 00:24:04
  TRACK 18 AUDIO
    TITLE "0:"
    INDEX 01 00:30:59
  TRACK 19 AUDIO
    TITLE "3:cjc004_0641"
    INDEX 01 00:31:33
  TRACK 20 AUDIO
    TITLE "0:"
    INDEX 01 00:32:58
  TRACK 21 AUDIO
    TITLE "4:cjc004_0642"
    INDEX 01 00:33:15
  TRACK 22 AUDIO
    TITLE "0:"
    INDEX 01 00:34:43
  TRACK 23 AUDIO
    TITLE "5:cjc004_0643"
    INDEX 01 00:34:67
  TRACK 24 AUDIO
    TITLE "0:"
    INDEX 01 00:39:00
  TRACK 25 AUDIO
    TITLE "3:cjc004_0644"
    INDEX 01 00:39:52
  TRACK 26 AUDIO
    TITLE "0:"
    INDEX 01 00:40:56
  TRACK 27 AUDIO
    TITLE "4:cjc004_0645"
    INDEX 01 00:41:10
  TRACK 28 AUDIO
    TITLE "0:"
    INDEX 01 00:42:18
  TRACK 29 AUDIO
    TITLE "5:cjc004_0646"
    INDEX 01 00:42:37
  TRACK 30 AUDIO
    TITLE "0:"
    INDEX 01 00:48:14
  TRACK 31 AUDIO
    TITLE "3:cjc004_0647"
    INDEX 01 00:48:65
  TRACK 32 AUDIO
    TITLE "0:"
    INDEX 01 00:50:01
  TRACK 33 AUDIO
    TITLE "4:cjc004_0648"
    INDEX 01 00:50:31
  TRACK 34 AUDIO
    TITLE "0:"
    INDEX 01 00:52:04
  TRACK 35 AUDIO
    TITLE "5:cjc004_0649"
    INDEX 01 00:52:30
  TRACK 36 AUDIO
    TITLE "0:"
    INDEX 01 00:56:74
  TRACK 37 AUDIO
    TITLE "3:cjc004_0650"
    INDEX 01 00:57:50
  TRACK 38 AUDIO
    TITLE "0:"
    INDEX 01 00:59:16
  TRACK 39 AUDIO
    TITLE "4:cjc004_0651"
    INDEX 01 00:59:45
  TRACK 40 AUDIO
    TITLE "0:"
    INDEX 01 01:01:33
  TRACK 41 AUDIO
    TITLE "5:cjc004_0652"
    INDEX 01 01:01:54
  TRACK 42 AUDIO
    TITLE "0:"
    INDEX 01 01:07:25
  TRACK 43 AUDIO
    TITLE "3:cjc004_0653"
    INDEX 01 01:08:05
  TRACK 44 AUDIO
    TITLE "0:"
    INDEX 01 01:09:40
  TRACK 45 AUDIO
    TITLE "4:cjc004_0654"
    INDEX 01 01:09:71
  TRACK 46 AUDIO
    TITLE "0:"
    INDEX 01 01:11:64
  TRACK 47 AUDIO
    TITLE "5:cjc004_0655"
    INDEX 01 01:12:13
  TRACK 48 AUDIO
    TITLE "0:"
    INDEX 01 01:16:34
  TRACK 49 AUDIO
    TITLE "3:cjc004_0656"
    INDEX 01 01:17:10
  TRACK 50 AUDIO
    TITLE "0:"
    INDEX 01 01:18:37
  TRACK 51 AUDIO
    TITLE "4:cjc004_0657"
    INDEX 01 01:18:64
  TRACK 52 AUDIO
    TITLE "0:"
    INDEX 01 01:20:65
  TRACK 53 AUDIO
    TITLE "5:cjc004_0658"
    INDEX 01 01:21:16
  TRACK 54 AUDIO
    TITLE "0:"
    INDEX 01 01:25:49
  TRACK 55 AUDIO
    TITLE "3:cjc004_0659"
    INDEX 01 01:26:23
  TRACK 56 AUDIO
    TITLE "0:"
    INDEX 01 01:27:40
  TRACK 57 AUDIO
    TITLE "4:cjc004_0660"
    INDEX 01 01:27:69
  TRACK 58 AUDIO
    TITLE "0:"
    INDEX 01 01:29:70
  TRACK 59 AUDIO
    TITLE "5:cjc004_0661"
    INDEX 01 01:30:18
  TRACK 60 AUDIO
    TITLE "0:"
    INDEX 01 01:35:10
  TRACK 61 AUDIO
    TITLE "3:cjc004_0662"
    INDEX 01 01:35:63
  TRACK 62 AUDIO
    TITLE "0:"
    INDEX 01 01:37:13
  TRACK 63 AUDIO
    TITLE "4:cjc004_0663"
    INDEX 01 01:37:42
  TRACK 64 AUDIO
    TITLE "0:"
    INDEX 01 01:38:65
  TRACK 65 AUDIO
    TITLE "5:cjc004_0664"
    INDEX 01 01:39:21
  TRACK 66 AUDIO
    TITLE "0:"
    INDEX 01 01:43:41
  TRACK 67 AUDIO
    TITLE "3:cjc004_0665"
    INDEX 01 01:44:19
  TRACK 68 AUDIO
    TITLE "0:"
    INDEX 01 01:45:44
  TRACK 69 AUDIO
    TITLE "4:cjc004_0666"
    INDEX 01 01:45:67
  TRACK 70 AUDIO
    TITLE "0:"
    INDEX 01 01:47:19
  TRACK 71 AUDIO
    TITLE "5:cjc004_0667"
    INDEX 01 01:47:46
  TRACK 72 AUDIO
    TITLE "0:"
    INDEX 01 01:51:64
  TRACK 73 AUDIO
    TITLE "3:cjc004_0668"
    INDEX 01 01:52:36
  TRACK 74 AUDIO
    TITLE "0:"
    INDEX 01 01:53:55
  TRACK 75 AUDIO
    TITLE "4:cjc004_0669"
    INDEX 01 01:54:07
  TRACK 76 AUDIO
    TITLE "0:"
    INDEX 01 01:55:01
  TRACK 77 AUDIO
    TITLE "5:cjc004_0670"
    INDEX 01 01:55:26
  TRACK 78 AUDIO
    TITLE "0:"
    INDEX 01 01:59:50
  TRACK 79 AUDIO
    TITLE "3:cjc004_0671"
    INDEX 01 02:00:31
  TRACK 80 AUDIO
    TITLE "0:"
    INDEX 01 02:01:46
  TRACK 81 AUDIO
    TITLE "4:cjc004_0672"
    INDEX 01 02:02:09
  TRACK 82 AUDIO
    TITLE "0:"
    INDEX 01 02:03:67
  TRACK 83 AUDIO
    TITLE "5:cjc004_0673"
    INDEX 01 02:04:19
  TRACK 84 AUDIO
    TITLE "0:"
    INDEX 01 02:06:73
